<svg xmlns="http://www.w3.org/2000/svg" viewBox="0 0 296.16 420.81" width="296.16" height="420.81" style="background-color: transparent;">
    <defs>
        <style>@import url('https://fonts.googleapis.com/css2?family=Caveat+Brush&amp;family=Source+Code+Pro&amp;family=Source+Sans+Pro&amp;family=Crimson+Pro&amp;display=block');</style>
    </defs>
    <g>
        <g id="0c5413ef-6bc0-45e6-0e8d-0e3b0b2e638f_svg" class="tl-centered-g" transform="translate(94.21, 43.20) rotate(0.00, 56.00, 56.00)">
            <path d="M6.57,31.67 Q9.88,25.52 11.39,23.31 T15.13,18.52 20.40,13.23 27.45,7.99 36.40,3.48 47.16,0.52 59.38,-0.05 72.38,2.51 85.15,8.73 96.48,18.76 105.03,32.22 109.60,48.21 109.34,65.33 103.93,81.86 93.72,96.00 79.70,106.18 63.37,111.33 46.48,111.00 30.80,105.47 17.78,95.64 8.40,82.80 3.08,68.43 1.71,53.94 3.74,40.46 8.35,28.80 14.64,19.35 21.71,12.17 28.82,7.08 35.37,3.73 40.95,1.69 45.29,0.58 " stroke="none" fill="#d2d2d2" pointer-events="none"/>
            <path d="M6.56,31.67 Q9.11,25.11 10.53,22.77 T14.16,17.76 19.48,12.31 26.68,6.96 35.84,2.38 46.84,-0.64 59.32,-1.24 72.61,1.36 85.67,7.69 97.25,17.90 106.00,31.61 110.70,47.91 110.48,65.36 105.01,82.23 94.63,96.68 80.35,107.11 63.69,112.41 46.44,112.13 30.41,106.53 17.08,96.53 7.48,83.46 2.02,68.81 0.58,54.03 2.62,40.28 7.30,28.37 13.70,18.71 20.95,11.41 28.28,6.32 35.05,3.10 40.80,1.29 45.24,0.43 47.12,0.19 47.12,0.20 45.33,0.72 41.10,2.10 35.70,4.35 29.37,7.84 22.48,12.93 15.57,19.98 9.41,29.23 4.86,40.64 2.84,53.84 4.15,68.05 9.32,82.14 18.47,94.74 31.19,104.41 46.52,109.87 63.05,110.24 79.05,105.26 92.81,95.32 102.86,81.49 108.20,65.30 108.50,48.51 104.06,32.83 95.71,19.62 84.64,9.78 72.15,3.66 59.43,1.14 47.48,1.69 36.96,4.59 28.22,9.01 21.33,14.14 16.11,19.28 12.26,23.84 8.61,28.80 Z" fill="#1d1d1d" stroke="#1d1d1d" stroke-width="2" pointer-events="none" stroke-linecap="round" stroke-linejoin="round"/>
        </g>
        <g id="6934a839-f4cf-4e89-010c-b1cf49ff28f3_svg" class="tl-centered-g" transform="translate(184.08, 303.20) rotate(-208.98, 24.00, 48.00)">
            <path d="M32.46,0.96 Q36.44,0.85 38.94,0.78 T43.56,2.19 46.19,8.65 46.78,19.54 46.85,31.55 46.78,43.85 46.68,56.23 46.57,68.62 46.47,81.02 44.91,90.29 41.06,94.12 36.15,95.05 30.98,95.24 25.74,95.24 20.48,95.20 15.21,95.14 9.95,95.08 5.15,93.55 2.45,87.13 1.79,76.41 1.64,64.60 1.63,52.50 1.65,40.33 1.68,28.15 1.71,15.96 3.22,6.82 7.09,2.94 12.06,1.85 17.30,1.46 22.62,1.25 27.96,1.09 34.22,0.91 " fill="#d2d2d2" pointer-events="none"/>
            <path d="M32.42,-0.32 Q36.40,-0.61 38.99,-0.74 T44.23,0.92 47.51,8.11 48.15,19.46 48.03,31.55 47.87,43.86 47.87,56.24 47.95,68.63 48.01,81.07 46.32,90.82 41.87,95.31 36.42,96.39 31.03,96.43 25.74,96.34 20.47,96.38 15.20,96.51 9.85,96.61 4.47,94.83 1.13,87.69 0.42,76.50 0.46,64.61 0.54,52.50 0.47,40.33 0.31,28.14 0.16,15.92 1.80,6.30 6.25,1.77 11.75,0.52 17.21,0.28 22.58,0.16 27.92,-0.10 34.18,-0.46 38.00,-0.62 38.44,-0.48 38.82,-0.21 39.10,0.17 39.23,0.62 39.22,1.09 39.06,1.52 38.77,1.89 38.37,2.14 37.92,2.25 37.45,2.22 37.02,2.03 36.68,1.72 36.45,1.31 36.36,0.85 36.42,0.39 36.63,-0.03 36.96,-0.36 37.38,-0.57 37.84,-0.63 38.30,-0.54 38.71,-0.31 39.02,0.04 39.20,0.47 39.24,0.93 39.13,1.39 38.88,1.78 38.51,2.07 38.07,2.23 37.84,2.28 34.25,2.28 27.99,2.27 22.66,2.34 17.39,2.64 12.36,3.17 7.93,4.12 4.65,7.34 3.26,16.00 3.05,28.15 2.84,40.33 2.72,52.50 2.83,64.58 3.15,76.32 3.77,86.58 5.83,92.28 10.04,93.55 15.23,93.77 20.49,94.01 25.74,94.15 30.93,94.06 35.89,93.71 40.24,92.93 43.50,89.75 44.92,80.97 45.20,68.61 45.50,56.22 45.69,43.85 45.66,31.56 45.41,19.62 44.87,9.20 42.90,3.45 38.88,2.31 34.49,2.28 32.34,2.22 32.04,2.16 31.77,2.02 31.53,1.83 31.35,1.58 31.23,1.30 31.19,0.99 31.22,0.69 31.32,0.40 31.49,0.14 31.71,-0.06 31.98,-0.21 32.27,-0.30 Z" fill="#1d1d1d" stroke="#1d1d1d" stroke-width="2" pointer-events="none"/>
        </g>
        <g id="fb9d1201-c68c-42b9-2a8c-2b955d786dd2_svg" class="tl-centered-g" transform="translate(72.08, 303.20) rotate(208.98, 24.00, 48.00)">
            <path d="M15.94,94.74 Q11.84,94.70 9.26,94.67 T4.54,93.14 1.89,86.68 1.29,75.85 1.22,63.91 1.29,51.69 1.38,39.40 1.49,27.09 1.60,14.77 3.16,5.55 7.02,1.75 11.96,0.87 17.17,0.72 22.45,0.77 27.75,0.86 33.06,0.97 38.36,1.08 43.18,2.64 45.93,9.10 46.70,19.88 46.97,31.77 47.11,43.94 47.21,56.19 47.30,68.45 47.40,80.71 45.96,89.90 42.06,93.71 36.96,94.64 31.56,94.83 26.07,94.83 20.57,94.79 14.13,94.72 " fill="#d2d2d2" pointer-events="none"/>
            <path d="M15.92,96.02 Q11.82,96.16 9.16,96.20 T3.86,94.41 0.57,87.22 -0.08,75.94 0.04,63.92 0.19,51.69 0.20,39.39 0.12,27.08 0.05,14.72 1.75,5.02 6.22,0.56 11.71,-0.47 17.13,-0.46 22.46,-0.32 27.77,-0.32 33.08,-0.40 38.47,-0.45 43.86,1.36 47.25,8.53 48.07,19.78 48.15,31.74 48.20,43.93 48.39,56.18 48.67,68.44 48.94,80.74 47.36,90.43 42.85,94.91 37.21,95.98 31.60,96.01 26.08,95.93 20.56,95.97 14.11,96.09 10.18,96.11 9.74,95.95 9.37,95.67 9.11,95.28 8.99,94.82 9.02,94.36 9.20,93.92 9.51,93.57 9.91,93.34 10.37,93.24 10.83,93.30 11.26,93.50 11.59,93.82 11.81,94.24 11.88,94.70 11.80,95.16 11.57,95.57 11.23,95.89 10.80,96.08 10.34,96.13 9.88,96.02 9.48,95.77 9.19,95.41 9.02,94.98 9.00,94.51 9.13,94.06 9.39,93.68 9.77,93.40 10.21,93.25 10.45,93.22 14.14,93.35 20.58,93.60 26.07,93.74 31.51,93.64 36.70,93.30 41.26,92.52 44.56,89.37 45.85,80.69 45.93,68.46 46.02,56.20 46.01,43.95 45.78,31.80 45.34,19.99 44.62,9.66 42.50,3.92 38.25,2.61 33.03,2.34 27.73,2.05 22.44,1.86 17.21,1.91 12.21,2.21 7.82,2.95 4.56,6.09 3.15,14.82 2.86,27.10 2.57,39.41 2.38,51.70 2.41,63.91 2.66,75.77 3.21,86.13 5.22,91.88 9.36,93.14 13.90,93.35 16.11,93.49 16.40,93.56 16.67,93.71 16.90,93.91 17.07,94.17 17.17,94.45 17.21,94.76 17.17,95.06 17.06,95.35 16.88,95.60 16.65,95.80 16.38,95.94 16.08,96.01 Z" fill="#1d1d1d" stroke="#1d1d1d" stroke-width="2" pointer-events="none"/></g><g id="90d5f4df-1dc3-4749-2cac-c0d3fb996ca7_svg" class="tl-centered-g" transform="translate(48.08, 159.20) rotate(233.53, 24.00, 52.00)">
            <path d="M46.71,72.17 Q46.73,82.08 46.75,88.29 T45.28,97.59 41.40,101.49 36.39,102.58 31.09,102.94 25.72,103.13 20.33,103.26 14.93,103.39 9.53,103.51 4.66,102.10 1.92,95.22 1.22,83.42 1.05,70.36 1.00,56.98 0.99,43.52 0.99,30.04 0.99,16.56 2.48,6.60 6.35,2.60 11.33,1.63 16.60,1.44 21.94,1.44 27.30,1.49 32.66,1.55 38.02,1.62 42.88,3.16 45.62,9.99 46.34,21.64 46.55,34.52 46.63,47.71 46.68,60.98 46.72,76.55 " fill="#d2d2d2" pointer-events="none"/>
            <path d="M47.99,72.17 Q48.20,82.07 48.30,88.33 T46.70,98.10 42.24,102.67 36.69,103.91 31.18,104.13 25.76,104.22 20.36,104.45 14.96,104.76 9.48,105.04 3.99,103.36 0.60,95.77 -0.14,83.51 -0.14,70.38 -0.09,56.99 -0.19,43.52 -0.38,30.04 -0.56,16.52 1.07,6.09 5.53,1.42 11.06,0.30 16.55,0.25 21.94,0.34 27.31,0.30 32.67,0.18 38.12,0.09 43.56,1.88 46.94,9.44 47.71,21.55 47.74,34.50 47.72,47.70 47.86,60.98 48.09,76.54 48.17,85.70 48.02,86.14 47.74,86.52 47.35,86.78 46.90,86.90 46.43,86.88 46.00,86.71 45.64,86.41 45.40,86.01 45.30,85.55 45.35,85.09 45.54,84.66 45.86,84.32 46.28,84.10 46.74,84.02 47.20,84.10 47.61,84.32 47.93,84.65 48.13,85.08 48.18,85.54 48.08,86.00 47.84,86.40 47.49,86.71 47.05,86.88 46.59,86.91 46.14,86.78 45.75,86.52 45.47,86.15 45.32,85.71 45.28,85.47 45.35,76.55 45.49,60.98 45.54,47.72 45.37,34.54 44.98,21.73 44.30,10.54 42.20,4.43 37.92,3.16 32.64,2.93 27.28,2.68 21.94,2.53 16.64,2.62 11.60,2.96 7.17,3.78 3.89,7.12 2.54,16.59 2.36,30.04 2.18,43.52 2.10,56.98 2.23,70.34 2.59,83.33 3.24,94.68 5.32,100.83 9.59,101.98 14.90,102.02 20.30,102.08 25.68,102.03 31.01,101.76 36.09,101.25 40.56,100.32 43.86,97.07 45.20,88.26 45.35,77.13 45.45,72.02 45.52,71.72 45.66,71.45 45.86,71.22 46.11,71.05 46.40,70.94 46.70,70.90 47.01,70.94 47.29,71.05 47.55,71.22 47.75,71.45 47.89,71.72 47.97,72.01 Z" fill="#1d1d1d" stroke="#1d1d1d" stroke-width="2" pointer-events="none"/>
        </g>
        <g id="235c6614-20cd-4404-07e7-f5aac2712489_svg" class="tl-centered-g" transform="translate(200.08, 156.20) rotate(-233.53, 24.00, 52.00)">
            <path d="M1.52,31.23 Q1.59,21.25 1.64,14.98 T3.19,5.63 7.08,1.76 12.08,0.78 17.37,0.54 22.72,0.50 28.10,0.49 33.48,0.51 38.86,0.52 43.72,2.02 46.41,8.88 47.02,20.61 47.10,33.57 47.04,46.85 46.94,60.22 46.84,73.60 46.74,86.99 45.18,96.88 41.29,100.89 36.29,101.91 31.01,102.17 25.66,102.24 20.28,102.25 14.91,102.26 9.53,102.25 4.67,100.76 1.97,93.90 1.36,82.16 1.29,69.19 1.34,55.89 1.43,42.51 1.55,26.82 " fill="#d2d2d2" pointer-events="none"/>
            <path d="M0.24,31.22 Q0.13,21.23 0.09,14.93 T1.78,5.09 6.27,0.57 11.81,-0.55 17.31,-0.64 22.71,-0.60 28.10,-0.69 33.48,-0.86 38.94,-1.01 44.40,0.76 47.74,8.35 48.39,20.53 48.28,33.56 48.13,46.86 48.13,60.23 48.21,73.61 48.29,87.03 46.60,97.40 42.12,102.07 36.57,103.25 31.07,103.36 25.67,103.33 20.29,103.44 14.91,103.63 9.45,103.79 3.99,102.03 0.65,94.44 -0.00,82.24 0.10,69.19 0.25,55.88 0.25,42.50 0.18,26.81 0.20,17.58 0.35,17.14 0.63,16.77 1.02,16.51 1.48,16.39 1.94,16.42 2.37,16.60 2.73,16.90 2.97,17.30 3.06,17.76 3.01,18.23 2.81,18.65 2.49,18.98 2.07,19.20 1.61,19.27 1.15,19.19 0.74,18.97 0.42,18.63 0.23,18.20 0.18,17.74 0.28,17.28 0.53,16.88 0.89,16.58 1.32,16.41 1.79,16.39 2.24,16.52 2.62,16.79 2.90,17.16 3.05,17.61 3.08,17.84 2.92,26.83 2.62,42.52 2.44,55.89 2.47,69.18 2.73,82.09 3.30,93.37 5.34,99.50 9.61,100.72 14.91,100.88 20.28,101.07 25.64,101.14 30.95,100.99 36.01,100.58 40.46,99.72 43.76,96.36 45.19,86.94 45.47,73.59 45.76,60.21 45.94,46.85 45.91,33.58 45.65,20.69 45.09,9.42 43.05,3.29 38.77,2.05 33.47,1.88 28.10,1.68 22.73,1.59 17.42,1.73 12.35,2.12 7.90,2.94 4.60,6.16 3.19,15.03 2.93,26.25 2.78,31.39 2.70,31.69 2.56,31.96 2.35,32.19 2.10,32.36 1.81,32.47 1.51,32.50 1.20,32.46 0.92,32.35 0.67,32.18 0.47,31.94 0.33,31.67 0.26,31.38 Z" fill="#1d1d1d" stroke="#1d1d1d" stroke-width="2" pointer-events="none"/>
        </g>
        <g id="fb28dcf5-33f0-4052-1cc5-1bbda971a24e_svg" class="tl-centered-g" transform="translate(94.76, 159.20) rotate(179.33, 55.45, 83.17)">
            <path d="M0.97,74.16 Q1.03,61.16 1.07,53.01 T1.15,36.27 1.24,19.01 2.78,6.61 9.98,1.97 22.44,0.81 36.24,0.53 50.38,0.48 64.62,0.49 78.87,0.51 93.13,0.54 103.57,2.05 107.77,10.39 108.93,25.44 109.31,42.20 109.50,59.41 109.63,76.72 109.76,94.06 109.88,111.41 110.00,128.76 110.12,146.11 108.70,158.49 101.44,163.17 88.77,164.44 74.71,164.83 60.31,165.01 45.82,165.12 31.30,165.22 16.78,165.32 6.17,163.89 2.01,155.54 1.01,140.41 0.82,123.55 0.84,106.26 0.90,88.85 0.98,71.41 1.08,50.98 " fill="#d2d2d2" pointer-events="none"/>
            <path d="M-0.10,74.16 Q-0.18,61.16 -0.22,53.00 T-0.28,36.27 -0.34,18.98 1.50,6.04 9.40,0.70 22.30,-0.55 36.21,-0.65 50.38,-0.61 64.62,-0.69 78.87,-0.86 93.16,-1.01 104.17,0.78 109.08,9.84 110.35,25.32 110.60,42.17 110.64,59.39 110.71,76.71 110.90,94.05 111.17,111.40 111.43,128.75 111.69,146.12 109.99,159.06 102.03,164.44 88.92,165.80 74.75,166.02 60.32,166.10 45.83,166.31 31.31,166.59 16.76,166.87 5.58,165.14 0.69,156.06 -0.41,140.51 -0.47,123.57 -0.31,106.26 -0.17,88.84 -0.16,71.40 -0.21,50.97 -0.19,39.04 -0.05,38.63 0.22,38.29 0.58,38.05 1.00,37.93 1.43,37.96 1.84,38.12 2.17,38.40 2.39,38.78 2.48,39.20 2.43,39.63 2.25,40.03 1.95,40.34 1.56,40.54 1.13,40.61 0.70,40.54 0.32,40.33 0.02,40.02 -0.16,39.62 -0.20,39.19 -0.11,38.76 0.12,38.39 0.45,38.11 0.86,37.95 1.29,37.93 1.71,38.05 2.07,38.30 2.33,38.64 2.47,39.06 2.50,39.27 2.37,50.98 2.13,71.41 1.98,88.85 1.98,106.26 2.11,123.54 2.44,140.31 3.33,155.02 6.77,162.64 16.80,163.77 31.29,163.85 45.81,163.94 60.30,163.91 74.68,163.65 88.62,163.08 100.85,161.90 107.42,157.92 108.54,146.10 108.56,128.77 108.59,111.42 108.61,94.07 108.56,76.73 108.35,59.42 108.02,42.23 107.50,25.56 106.45,10.93 102.97,3.31 93.10,2.09 78.87,1.89 64.62,1.68 50.39,1.58 36.26,1.72 22.58,2.17 10.56,3.25 4.06,7.19 2.81,19.04 2.59,36.28 2.36,53.01 2.14,67.67 2.02,74.30 1.96,74.55 1.84,74.77 1.67,74.96 1.46,75.11 1.22,75.20 0.96,75.23 0.71,75.20 0.47,75.10 0.26,74.96 0.09,74.76 -0.03,74.54 -0.09,74.29 Z" fill="#1d1d1d" stroke="#1d1d1d" stroke-width="2" pointer-events="none"/>
        </g>
    </g>
    <g>
        <g id="ab4dbb9f-4087-4408-3457-07421893d44c_svg" class="tl-centered-g" transform="translate(72.08, 305.60) rotate(208.98, 28.00, 40.00)">
            <path d="M18.50,78.96 Q13.64,78.90 10.58,78.86 T5.26,77.33 2.43,71.71 1.74,62.82 1.60,53.09 1.59,43.15 1.62,33.15 1.66,23.14 1.70,13.13 3.22,5.36 7.51,1.93 13.42,1.16 19.75,1.07 26.18,1.14 32.64,1.27 39.11,1.40 45.58,1.53 51.13,3.11 54.04,8.71 54.79,17.55 55.00,27.23 55.06,37.11 55.09,47.05 55.11,57.01 55.13,66.96 53.65,74.70 49.35,78.14 43.39,78.95 37.01,79.10 30.51,79.08 23.99,79.02 16.35,78.93 " fill="#d0e8ec" pointer-events="none"/>
            <path d="M18.48,80.24 Q13.62,80.36 10.49,80.40 T4.60,78.62 1.13,72.30 0.38,62.94 0.41,53.11 0.50,43.15 0.44,33.15 0.29,23.14 0.16,13.08 1.86,4.78 6.80,0.69 13.23,-0.19 19.73,-0.12 26.19,0.05 32.66,0.08 39.14,0.03 45.68,-0.00 51.78,1.81 55.34,8.11 56.16,17.43 56.18,27.20 56.16,37.11 56.28,47.05 56.48,57.00 56.67,67.01 55.01,75.28 50.07,79.38 43.59,80.30 37.04,80.29 30.51,80.17 23.98,80.20 16.34,80.30 11.72,80.30 11.28,80.15 10.91,79.86 10.65,79.47 10.53,79.02 10.56,78.55 10.74,78.12 11.05,77.77 11.45,77.53 11.91,77.43 12.37,77.49 12.80,77.69 13.13,78.02 13.35,78.43 13.42,78.90 13.33,79.36 13.11,79.77 12.77,80.08 12.34,80.27 11.88,80.32 11.42,80.21 11.02,79.97 10.72,79.61 10.56,79.17 10.54,78.70 10.67,78.26 10.93,77.87 11.31,77.59 11.75,77.45 11.99,77.41 16.37,77.56 24.01,77.83 30.52,77.99 36.98,77.92 43.19,77.60 48.63,76.89 52.29,74.13 53.58,66.92 53.74,57.01 53.91,47.06 53.97,37.12 53.81,27.26 53.43,17.68 52.74,9.31 50.47,4.41 45.48,3.07 39.08,2.77 32.62,2.45 26.17,2.24 19.77,2.25 13.61,2.51 8.22,3.18 4.58,5.94 3.25,13.18 3.03,23.15 2.81,33.16 2.69,43.15 2.78,53.07 3.11,62.70 3.74,71.12 5.92,76.03 10.67,77.33 16.08,77.56 18.67,77.70 18.96,77.78 19.23,77.92 19.46,78.13 19.63,78.38 19.74,78.67 19.77,78.97 19.73,79.28 19.62,79.56 19.44,79.81 19.21,80.01 18.94,80.15 18.64,80.22 Z" fill="#0e98ad" stroke="#0e98ad" stroke-width="2" pointer-events="none"/>
        </g>
        <g id="c27ac8db-8b03-49ea-17bb-16103d9bad8b_svg" class="tl-centered-g" transform="translate(48.08, 161.60) rotate(233.53, 32.00, 44.00)">
            <path d="M0.79,27.15 Q0.67,18.88 0.59,13.69 T1.99,5.69 6.72,2.20 13.69,1.38 21.24,1.25 28.93,1.29 36.66,1.37 44.41,1.47 52.15,1.57 58.50,3.12 61.62,9.08 62.44,18.76 62.68,29.39 62.77,40.26 62.82,51.19 62.86,62.13 62.90,73.08 61.43,81.44 56.73,85.08 49.86,86.05 42.43,86.33 34.86,86.44 27.26,86.50 19.65,86.55 12.03,86.60 5.77,85.14 2.62,79.14 1.69,69.34 1.33,58.58 1.12,47.56 0.94,36.49 0.74,23.50 " fill="#d0e8ec" pointer-events="none"/>
            <path d="M-0.48,27.17 Q-0.79,18.90 -0.95,13.67 T0.65,5.12 6.04,0.94 13.52,0.02 21.22,0.06 28.94,0.19 36.68,0.19 44.42,0.10 52.23,0.03 59.14,1.82 62.91,8.49 63.81,18.64 63.87,29.36 63.86,40.25 64.00,51.18 64.23,62.13 64.44,73.12 62.79,82.01 57.44,86.32 50.06,87.40 42.48,87.51 34.88,87.53 27.27,87.68 19.66,87.92 11.98,88.14 5.14,86.44 1.33,79.75 0.33,69.48 0.15,58.62 0.02,47.59 -0.25,36.51 -0.63,23.52 -0.80,15.84 -0.66,15.39 -0.38,15.01 0.00,14.75 0.45,14.61 0.92,14.63 1.36,14.80 1.72,15.10 1.96,15.49 2.07,15.95 2.03,16.41 1.84,16.84 1.52,17.19 1.11,17.41 0.65,17.49 0.19,17.42 -0.23,17.21 -0.56,16.88 -0.76,16.46 -0.82,15.99 -0.72,15.53 -0.49,15.13 -0.13,14.82 0.30,14.64 0.76,14.61 1.22,14.73 1.61,14.99 1.90,15.35 2.05,15.79 2.09,16.03 2.11,23.48 2.12,36.47 2.21,47.54 2.52,58.54 3.05,69.21 3.91,78.53 6.39,83.83 12.09,85.06 19.64,85.18 27.25,85.31 34.85,85.34 42.38,85.14 49.66,84.70 56.02,83.84 60.07,80.88 61.35,73.05 61.49,62.14 61.63,51.19 61.68,40.27 61.50,29.42 61.08,18.89 60.33,9.68 57.86,4.42 52.07,3.11 44.39,2.84 36.65,2.56 28.93,2.38 21.26,2.43 13.86,2.74 7.39,3.45 3.33,6.26 2.14,13.72 2.10,22.99 2.06,27.28 1.99,27.58 1.85,27.85 1.65,28.08 1.40,28.26 1.12,28.37 0.81,28.42 0.51,28.38 0.22,28.28 -0.03,28.11 -0.24,27.88 -0.39,27.61 -0.46,27.32 Z" fill="#0e98ad" stroke="#0e98ad" stroke-width="2" pointer-events="none"/>
        </g>
        <g id="605df8e3-667f-4ed1-1771-48c4a4646333_svg" class="tl-centered-g" transform="translate(176.08, 305.60) rotate(151.99, 28.00, 40.00)">
            <path d="M0.77,25.44 Q0.73,18.10 0.70,13.49 T2.15,6.22 6.45,2.83 12.42,1.86 18.81,1.52 25.31,1.33 31.84,1.18 38.38,1.04 44.91,0.91 50.51,2.31 53.45,7.93 54.25,16.89 54.51,26.71 54.63,36.74 54.71,46.83 54.79,56.93 54.86,67.04 53.42,74.88 49.12,78.32 43.14,79.11 36.74,79.22 30.23,79.16 23.69,79.05 17.14,78.93 10.59,78.81 4.99,77.25 2.05,71.69 1.26,62.93 1.01,53.35 0.90,43.57 0.83,33.74 0.75,22.20 " fill="#d0e8ec" pointer-events="none"/>
            <path d="M-0.50,25.45 Q-0.74,18.11 -0.84,13.45 T0.78,5.65 5.71,1.59 12.19,0.52 18.74,0.33 25.28,0.24 31.81,-0.01 38.35,-0.33 44.96,-0.63 51.14,1.01 54.74,7.32 55.62,16.76 55.70,26.67 55.72,36.73 55.90,46.82 56.16,56.92 56.41,67.08 54.77,75.45 49.83,79.56 43.33,80.46 36.76,80.40 30.22,80.25 23.67,80.24 17.12,80.31 10.50,80.35 4.34,78.56 0.76,72.30 -0.10,63.06 -0.17,53.39 -0.19,43.58 -0.36,33.74 -0.62,22.21 -0.71,15.36 -0.57,14.92 -0.29,14.54 0.10,14.28 0.55,14.15 1.02,14.17 1.45,14.34 1.81,14.64 2.05,15.04 2.16,15.50 2.11,15.96 1.91,16.39 1.59,16.73 1.18,16.95 0.72,17.03 0.26,16.96 -0.15,16.74 -0.48,16.40 -0.68,15.98 -0.73,15.52 -0.63,15.06 -0.39,14.66 -0.04,14.35 0.39,14.18 0.86,14.15 1.31,14.27 1.70,14.53 1.99,14.90 2.14,15.34 2.18,15.58 2.13,22.19 2.01,33.73 1.99,43.56 2.20,53.32 2.62,62.80 3.35,71.08 5.65,75.94 10.69,77.28 17.17,77.56 23.71,77.87 30.24,78.06 36.72,78.03 42.95,77.75 48.41,77.08 52.06,74.30 53.32,67.01 53.42,56.94 53.53,46.84 53.54,36.75 53.33,26.74 52.89,17.02 52.15,8.53 49.88,3.61 44.87,2.44 38.40,2.41 31.87,2.37 25.34,2.42 18.88,2.70 12.65,3.21 7.19,4.06 3.53,6.79 2.24,13.54 2.12,21.76 2.03,25.59 1.96,25.88 1.82,26.16 1.62,26.39 1.37,26.56 1.09,26.67 0.78,26.71 0.48,26.68 0.19,26.57 -0.06,26.40 -0.27,26.17 -0.41,25.90 -0.49,25.60 Z" fill="#0e98ad" stroke="#0e98ad" stroke-width="2" pointer-events="none"/>
        </g>
        <g id="eb132241-09c0-4cbf-1142-c4690380bfb8_svg" class="tl-centered-g" transform="translate(184.08, 158.60) rotate(-233.53, 32.00, 44.00)">
            <path d="M20.74,86.60 Q15.06,86.49 11.49,86.43 T5.53,84.85 2.51,78.81 1.73,68.97 1.52,58.16 1.45,47.11 1.43,35.99 1.41,24.86 1.39,13.72 2.87,5.24 7.58,1.64 14.48,0.83 21.92,0.72 29.51,0.80 37.14,0.92 44.77,1.06 52.41,1.19 58.69,2.77 61.79,8.81 62.58,18.66 62.79,29.48 62.84,40.54 62.86,51.67 62.87,62.81 62.88,73.96 61.39,82.44 56.68,86.04 49.80,86.85 42.36,86.94 34.78,86.86 27.16,86.72 18.23,86.56 " fill="#d0e8ec" pointer-events="none"/>
            <path d="M20.72,87.88 Q15.03,87.96 11.40,87.96 T4.88,86.14 1.21,79.39 0.36,69.09 0.33,58.19 0.36,47.12 0.24,36.00 0.04,24.86 -0.16,13.68 1.53,4.67 6.91,0.39 14.30,-0.53 21.90,-0.46 29.52,-0.29 37.16,-0.26 44.80,-0.32 52.50,-0.35 59.34,1.47 63.08,8.23 63.94,18.54 63.97,29.45 63.94,40.53 64.05,51.67 64.24,62.81 64.42,74.00 62.73,83.02 57.36,87.29 49.97,88.20 42.37,88.13 34.77,87.95 27.14,87.91 18.21,87.93 12.85,87.88 12.41,87.72 12.04,87.43 11.79,87.04 11.67,86.59 11.71,86.12 11.89,85.69 12.20,85.34 12.60,85.10 13.06,85.01 13.53,85.07 13.95,85.28 14.28,85.60 14.49,86.02 14.56,86.48 14.47,86.94 14.25,87.35 13.90,87.67 13.47,87.86 13.01,87.90 12.55,87.79 12.16,87.54 11.86,87.18 11.70,86.74 11.68,86.27 11.81,85.82 12.08,85.44 12.46,85.17 12.91,85.03 13.14,84.99 18.26,85.18 27.18,85.54 34.79,85.76 42.34,85.76 49.62,85.49 56.00,84.79 60.05,81.87 61.33,73.92 61.50,62.81 61.68,51.67 61.75,40.55 61.60,29.50 61.22,18.78 60.49,9.40 58.05,4.07 52.32,2.73 44.75,2.43 37.12,2.11 29.50,1.89 21.94,1.91 14.65,2.18 8.26,2.89 4.21,5.82 2.94,13.76 2.78,24.86 2.61,35.99 2.55,47.10 2.70,58.14 3.09,68.85 3.81,78.22 6.18,83.55 11.58,84.89 17.93,85.18 20.92,85.35 21.21,85.43 21.48,85.57 21.71,85.78 21.88,86.04 21.98,86.33 22.01,86.63 21.97,86.93 21.85,87.22 21.67,87.46 21.44,87.66 21.17,87.80 20.87,87.87 Z" fill="#0e98ad" stroke="#0e98ad" stroke-width="2" pointer-events="none"/>
        </g>
        <g id="6502efd7-93b7-4c03-3e0d-78ace3f77ea6_svg" class="tl-centered-g" transform="translate(92.08, 257.60) rotate(0.00, 60.00, 36.00)">
            <path d="M84.03,1.25 Q95.83,1.38 103.24,1.46 T114.02,3.05 118.22,8.23 119.19,16.11 119.35,24.67 119.29,33.42 119.18,42.21 119.06,51.01 118.94,59.81 117.37,66.82 109.63,70.09 95.96,70.90 80.78,71.09 65.22,71.11 49.56,71.10 33.87,71.07 18.17,71.04 6.83,69.53 2.44,64.33 1.31,56.33 1.00,47.63 0.91,38.75 0.87,29.81 0.85,20.87 0.82,11.93 2.30,4.82 10.07,1.58 23.85,0.89 39.17,0.84 54.88,0.95 70.69,1.11 89.24,1.31 " fill="#d0e8ec" pointer-events="none"/>
            <path d="M84.04,-0.03 Q95.85,-0.08 103.28,-0.09 T114.59,1.71 119.46,7.55 120.55,15.93 120.53,24.65 120.39,33.42 120.37,42.22 120.43,51.02 120.48,59.88 118.63,67.47 110.16,71.40 96.05,72.27 80.80,72.27 65.22,72.20 49.55,72.28 33.86,72.44 18.14,72.59 6.29,70.89 1.22,65.03 -0.04,56.54 -0.18,47.67 -0.18,38.76 -0.31,29.82 -0.52,20.88 -0.72,11.88 1.04,4.19 9.55,0.27 23.78,-0.48 39.17,-0.35 54.89,-0.14 70.71,-0.07 89.26,-0.06 100.12,0.00 100.56,0.16 100.93,0.44 101.19,0.83 101.31,1.28 101.28,1.75 101.10,2.18 100.80,2.54 100.39,2.77 99.93,2.87 99.47,2.81 99.05,2.61 98.71,2.29 98.50,1.87 98.43,1.41 98.51,0.95 98.73,0.54 99.07,0.22 99.50,0.03 99.97,-0.02 100.42,0.09 100.82,0.33 101.12,0.69 101.29,1.13 101.31,1.60 101.18,2.05 100.91,2.43 100.53,2.71 100.09,2.85 99.86,2.89 89.23,2.68 70.68,2.30 54.88,2.05 39.18,2.02 23.93,2.26 10.59,2.90 3.56,5.46 2.37,11.98 2.22,20.87 2.06,29.81 2.00,38.73 2.19,47.59 2.66,56.13 3.67,63.63 7.38,68.18 18.20,69.49 33.87,69.70 49.56,69.91 65.22,70.02 80.77,69.90 95.87,69.53 109.10,68.78 116.10,66.18 117.39,59.74 117.69,50.99 118.00,42.19 118.20,33.41 118.16,24.70 117.84,16.29 116.98,8.91 113.46,4.39 103.19,3.01 89.91,2.69 83.86,2.51 83.56,2.43 83.30,2.29 83.07,2.08 82.90,1.83 82.79,1.54 82.76,1.24 82.80,0.94 82.91,0.65 83.09,0.40 83.32,0.20 83.59,0.06 83.89,-0.01 Z" fill="#0e98ad" stroke="#0e98ad" stroke-width="2" pointer-events="none"/>
        </g>
        <g id="67ad6d7f-e638-43d2-221f-1f35f6edb0f8_svg" class="tl-centered-g" transform="translate(88.08, 153.60) rotate(0.00, 64.00, 60.00)">
            <path d="M38.65,118.80 Q26.01,118.66 18.08,118.57 T6.64,116.97 2.23,109.25 1.10,95.63 0.82,80.51 0.74,65.01 0.72,49.41 0.72,33.78 0.72,18.15 2.21,6.85 10.36,2.51 25.00,1.49 41.30,1.31 58.02,1.34 74.85,1.43 91.70,1.53 108.57,1.63 120.64,3.19 125.25,10.93 126.50,24.61 126.89,39.81 127.07,55.39 127.19,71.07 127.30,86.78 127.41,102.49 125.98,113.84 117.81,118.16 103.08,119.12 86.69,119.23 69.86,119.11 52.93,118.95 33.07,118.73 " fill="#d0e8ec" pointer-events="none"/>
            <path d="M38.64,120.08 Q26.00,120.12 18.04,120.12 T6.04,118.24 0.94,109.81 -0.26,95.76 -0.37,80.54 -0.35,65.01 -0.46,49.41 -0.65,33.78 -0.83,18.12 0.95,6.25 9.83,1.22 24.90,0.12 41.29,0.12 58.02,0.25 74.85,0.24 91.71,0.16 108.60,0.08 121.22,1.91 126.52,10.36 127.86,24.48 128.08,39.78 128.16,55.38 128.38,71.06 128.67,86.77 128.96,102.51 127.23,114.44 118.32,119.46 103.18,120.49 86.69,120.41 69.86,120.21 52.92,120.13 33.06,120.11 21.44,120.03 20.99,119.88 20.63,119.59 20.37,119.20 20.25,118.75 20.28,118.28 20.46,117.85 20.76,117.50 21.17,117.26 21.62,117.17 22.09,117.22 22.51,117.42 22.85,117.75 23.06,118.16 23.13,118.63 23.05,119.09 22.83,119.50 22.48,119.82 22.06,120.01 21.59,120.05 21.14,119.95 20.74,119.70 20.44,119.34 20.27,118.91 20.25,118.44 20.38,117.99 20.65,117.61 21.02,117.33 21.47,117.18 21.70,117.15 33.09,117.36 52.94,117.76 69.87,118.02 86.68,118.04 102.98,117.75 117.29,116.86 124.73,113.25 125.85,102.48 125.93,86.79 126.01,71.08 125.98,55.40 125.71,39.84 125.13,24.75 123.97,11.50 120.05,4.47 108.53,3.19 91.70,2.90 74.84,2.61 58.02,2.43 41.31,2.49 25.11,2.85 10.89,3.81 3.46,7.44 2.27,18.17 2.09,33.78 1.91,49.41 1.84,65.00 2.00,80.49 2.47,95.51 3.51,108.69 7.23,115.70 18.12,117.02 32.35,117.36 38.82,117.54 39.12,117.62 39.39,117.76 39.61,117.97 39.78,118.22 39.89,118.51 39.92,118.81 39.88,119.11 39.77,119.40 39.59,119.65 39.36,119.85 39.09,119.99 38.79,120.06 Z" fill="#0e98ad" stroke="#0e98ad" stroke-width="2" pointer-events="none"/>
        </g>
    </g>
    <g>
        <g id="29e22095-5839-439e-2c00-b844a5cfedf7_svg" class="tl-centered-g" transform="translate(114.48, 85.40) rotate(0.00, 13.80, 17.80)">
            <path d="M27.46,16.14 Q27.36,20.49 26.75,23.02 T24.48,28.39 19.81,33.20 12.97,34.85 5.80,31.18 1.29,22.28 1.84,11.33 7.44,3.11 15.49,1.00 22.55,5.03 26.46,12.51 27.11,20.19 25.78,26.07 " stroke="none" fill="#d0e8ec" pointer-events="none"/>
            <path d="M27.47,16.14 Q29.00,20.54 28.45,23.27 T26.03,29.05 20.80,34.29 13.12,36.15 5.13,32.25 0.16,22.79 0.67,11.17 6.68,2.34 15.45,-0.07 23.19,4.12 27.49,12.02 28.14,20.12 26.24,26.12 24.82,28.41 24.81,28.40 25.31,26.01 26.08,20.27 25.43,12.99 21.91,5.94 15.53,2.07 8.21,3.88 3.01,11.49 2.41,21.78 6.46,30.12 12.82,33.55 18.83,32.11 22.93,27.73 25.05,22.78 26.58,18.30 Z" fill="#0e98ad" stroke="#0e98ad" stroke-width="2" pointer-events="none" stroke-linecap="round" stroke-linejoin="round"/>
        </g>
        <g id="58e1214b-aef2-4798-27b7-bbefda9c54d2_svg" class="tl-centered-g" transform="translate(152.08, 84.60) rotate(0.00, 13.80, 17.80)">
            <path d="M12.04,-0.01 Q18.29,1.02 20.28,2.81 T23.88,8.03 25.79,16.17 24.48,25.53 19.55,32.80 12.40,34.79 5.78,30.45 2.16,21.72 2.41,12.18 5.59,4.90 9.93,1.04 13.89,-0.01 " stroke="none" fill="#d0e8ec" pointer-events="none"/>
            <path d="M12.05,-0.02 Q18.63,-0.31 20.95,1.63 T24.99,7.24 27.05,15.88 25.69,25.76 20.33,33.58 12.42,35.84 5.09,31.31 1.10,22.13 1.27,12.11 4.60,4.39 9.34,0.30 13.73,-0.39 15.63,0.01 15.63,0.02 14.05,0.38 10.52,1.78 6.57,5.42 3.55,12.26 3.23,21.32 6.47,29.59 12.39,33.73 18.76,32.03 23.27,25.30 24.52,16.47 22.76,8.81 19.62,3.99 15.00,1.18 Z" fill="#0e98ad" stroke="#0e98ad" stroke-width="2" pointer-events="none" stroke-linecap="round" stroke-linejoin="round"/>
        </g>
        <g id="ca888c69-127c-40b5-3688-e191b20e6016_svg" class="tl-centered-g" transform="translate(142.08, 102.69) rotate(0.00, 5.00, 0.50)">
            <defs>
                <mask id="ca888c69-127c-40b5-3688-e191b20e6016_clip">
                    <rect x="-100" y="-100" width="210" height="201" fill="white"/>
                    <rect x="5" y="0.10" width="0" height="0" rx="2" ry="2" fill="black" opacity="1"/>
                </mask>
            </defs>
            <g pointer-events="none" opacity="1" mask="">
                <path d="M-0.02,-0.70 Q2.48,-0.68 3.73,-0.68 T7.48,-0.71 10.10,-0.73 10.33,-0.66 10.52,-0.52 10.66,-0.32 10.73,-0.10 10.72,0.14 10.64,0.36 10.49,0.55 10.29,0.68 10.06,0.73 9.82,0.71 9.60,0.62 9.43,0.46 9.31,0.25 9.27,0.02 9.30,-0.22 9.41,-0.43 9.57,-0.60 9.79,-0.70 10.02,-0.73 10.26,-0.69 10.46,-0.57 10.62,-0.39 10.71,-0.17 10.73,0.06 10.67,0.29 10.54,0.49 10.36,0.64 10.13,0.72 10.02,0.74 7.52,0.82 3.77,0.95 1.27,1.07 -0.09,1.12 -0.30,1.08 -0.50,0.98 -0.67,0.84 -0.80,0.66 -0.88,0.46 -0.91,0.24 -0.89,0.02 -0.81,-0.18 -0.69,-0.37 -0.53,-0.52 -0.34,-0.62 -0.13,-0.68 Z" fill="#0e98ad" stroke="#0e98ad" stroke-width="2.11" stroke-dasharray="none" stroke-dashoffset="none" stroke-linecap="round" stroke-linejoin="round" pointer-events="stroke"/>
            </g>
        </g>
        <g id="49cc5d99-2ab3-488f-11a0-c720092cc5de_svg" class="tl-centered-g" transform="translate(179.00, 87.80) rotate(0.00, 10.74, 4.54)">
            <defs>
                <mask id="49cc5d99-2ab3-488f-11a0-c720092cc5de_clip">
                    <rect x="-100" y="-100" width="221.48" height="209.07" fill="white"/>
                    <rect x="10.74" y="4.53" width="0" height="0" rx="2" ry="2" fill="black" opacity="1"/>
                </mask>
            </defs>
            <g pointer-events="none" opacity="1" mask="">
                <path d="M-0.38,8.16 Q5.01,5.95 7.71,4.84 T13.09,2.61 18.47,0.37 21.29,-0.78 21.55,-0.80 21.80,-0.73 22.02,-0.59 22.18,-0.39 22.27,-0.15 22.27,0.11 22.19,0.36 22.04,0.57 21.83,0.72 21.58,0.79 21.32,0.78 21.08,0.69 20.88,0.53 20.74,0.31 20.68,0.06 20.70,-0.20 20.81,-0.44 20.98,-0.63 21.21,-0.75 21.46,-0.80 21.72,-0.76 21.95,-0.65 22.13,-0.46 22.25,-0.23 22.28,0.03 22.23,0.28 22.10,0.51 21.91,0.68 21.80,0.75 19.12,1.89 13.76,4.19 8.40,6.49 3.06,8.81 0.27,10.01 0.04,10.05 -0.20,10.03 -0.42,9.95 -0.62,9.83 -0.78,9.65 -0.90,9.45 -0.97,9.22 -0.97,8.99 -0.93,8.76 -0.82,8.54 -0.68,8.36 -0.49,8.22 Z" fill="#0e98ad" stroke="#0e98ad" stroke-width="2.11" stroke-dasharray="none" stroke-dashoffset="none" stroke-linecap="round" stroke-linejoin="round" pointer-events="stroke"/>
            </g>
        </g>
        <g id="c2e5e4bc-2193-4341-1f5b-9fd8010965ce_svg" class="tl-centered-g" transform="translate(95.68, 87.00) rotate(0.00, 9.86, 4.90)">
            <defs>
                <mask id="c2e5e4bc-2193-4341-1f5b-9fd8010965ce_clip">
                    <rect x="-100" y="-100" width="219.72" height="209.8" fill="white"/>
                    <rect x="9.86" y="4.9" width="0" height="0" rx="2" ry="2" fill="black" opacity="1"/>
                </mask>
            </defs>
            <g pointer-events="none" opacity="1" mask="">
                <path d="M19.28,10.68 Q14.38,8.17 11.93,6.93 T7.02,4.44 2.10,1.96 -0.47,0.65 -0.65,0.46 -0.76,0.23 -0.80,-0.02 -0.75,-0.28 -0.62,-0.50 -0.43,-0.67 -0.19,-0.77 0.07,-0.79 0.32,-0.73 0.53,-0.59 0.69,-0.39 0.78,-0.15 0.79,0.11 0.71,0.35 0.56,0.56 0.35,0.71 0.11,0.79 -0.15,0.78 -0.39,0.69 -0.59,0.53 -0.73,0.31 -0.79,0.06 -0.77,-0.19 -0.67,-0.43 -0.50,-0.62 -0.27,-0.75 -0.02,-0.80 0.23,-0.76 0.36,-0.72 2.83,0.49 7.77,2.91 12.72,5.32 17.68,7.72 20.26,8.98 20.44,9.14 20.57,9.33 20.66,9.55 20.70,9.78 20.67,10.01 20.59,10.23 20.46,10.43 20.29,10.59 20.09,10.70 19.86,10.77 19.62,10.77 19.39,10.72 Z" fill="#0e98ad" stroke="#0e98ad" stroke-width="2.11" stroke-dasharray="none" stroke-dashoffset="none" stroke-linecap="round" stroke-linejoin="round" pointer-events="stroke"/>
            </g>
        </g>
    </g>
    <g>
        <g id="df678a90-1749-464b-3320-5e114357cb4b_svg" class="tl-centered-g" transform="translate(85.48, 27.80) rotate(0.00, 62.60, 29.00)">
            <path d="M16.01,48.20 Q9.89,44.88 7.95,43.48 T4.12,40.17 0.83,35.85 -0.94,30.56 -0.10,24.48 4.33,18.00 13.05,11.70 26.24,6.32 43.31,2.64 62.95,1.34 83.13,2.86 101.47,7.24 115.68,14.08 123.95,22.58 125.40,31.71 120.16,40.38 109.29,47.66 94.52,52.93 77.83,55.94 61.10,56.78 45.78,55.84 32.80,53.62 22.53,50.70 14.93,47.57 9.67,44.65 6.28,42.24 4.31,40.53 " stroke="none" fill="#d0e8ec" pointer-events="none"/>
            <path d="M16.00,48.21 Q9.35,45.88 7.25,44.57 T3.11,41.34 -0.45,36.80 -2.38,30.99 -1.49,24.26 3.21,17.25 12.28,10.66 25.75,5.16 43.05,1.44 62.87,0.14 83.22,1.68 101.76,6.10 116.22,13.06 124.83,21.94 126.47,31.71 121.09,40.97 109.93,48.60 94.91,54.01 78.04,57.07 61.16,57.93 45.71,56.98 32.60,54.74 22.24,51.70 14.61,48.34 9.38,45.16 5.47,41.78 3.63,39.88 3.64,39.87 5.73,41.38 9.95,44.14 15.25,46.80 22.82,49.70 32.99,52.51 45.86,54.69 61.05,55.64 77.63,54.81 94.13,51.85 108.65,46.72 119.23,39.79 124.34,31.71 123.08,23.22 115.13,15.09 101.19,8.38 83.03,4.05 63.03,2.55 43.58,3.84 26.72,7.48 13.83,12.74 5.45,18.74 1.29,24.69 0.51,30.13 2.11,34.91 5.14,39.01 8.66,42.38 13.22,46.04 Z" fill="#0e98ad" stroke="#0e98ad" stroke-width="2" pointer-events="none" stroke-linecap="round" stroke-linejoin="round"/>
        </g>
        <g id="04772a41-78ef-4fd5-0fc6-7f10557dd978_svg" class="tl-centered-g" transform="translate(133.48, 16.00) rotate(0.00, 14.60, 17.40)">
            <path d="M-0.23,23.20 Q-1.23,15.47 -0.34,12.70 T2.93,7.27 9.17,3.17 17.47,2.57 25.29,6.70 29.55,14.68 28.45,23.64 22.63,30.25 14.66,32.61 7.35,30.97 2.34,27.04 -0.24,22.75 " stroke="none" fill="#d0e8ec" pointer-events="none"/>
            <path d="M-0.24,23.20 Q-2.70,15.60 -1.74,12.53 T1.79,6.56 8.52,2.09 17.46,1.37 25.92,5.73 30.59,14.26 29.53,23.89 23.40,31.06 14.90,33.70 7.04,32.05 1.72,27.80 -0.58,23.01 -1.00,20.73 -0.99,20.72 0.10,22.48 2.96,26.28 7.66,29.89 14.43,31.52 21.87,29.44 27.37,23.39 28.51,15.10 24.66,7.66 17.47,3.77 9.82,4.25 4.07,7.98 1.07,12.88 0.01,19.27 Z" fill="#0e98ad" stroke="#0e98ad" stroke-width="2" pointer-events="none" stroke-linecap="round" stroke-linejoin="round"/>
        </g>
    </g>
</svg>